<?xml version="1.0" encoding="utf-8"?>
<!-- Generator: Adobe Illustrator 27.5.0, SVG Export Plug-In . SVG Version: 6.00 Build 0)  -->
<svg version="1.1" xmlns="http://www.w3.org/2000/svg" xmlns:xlink="http://www.w3.org/1999/xlink" x="0px" y="0px"
	 viewBox="0 0 750 500" style="enable-background:new 0 0 750 500;" xml:space="preserve">
<g id="BACKGROUND">
	<g>
		<g>
			<linearGradient id="SVGID_1_" gradientUnits="userSpaceOnUse" x1="375" y1="500" x2="375" y2="-9.094947e-13">
				<stop  offset="0.2306" style="stop-color:#6585CE"/>
				<stop  offset="1" style="stop-color:#12173F"/>
			</linearGradient>
			<rect x="0" style="fill:url(#SVGID_1_);" width="750" height="500"/>
			
				<radialGradient id="SVGID_00000044164073658265989990000000223726682093199783_" cx="413.8959" cy="224.3881" r="190.7421" gradientUnits="userSpaceOnUse">
				<stop  offset="0" style="stop-color:#FFC41D"/>
				<stop  offset="0.5" style="stop-color:#ED690F;stop-opacity:0.5"/>
				<stop  offset="1" style="stop-color:#1A2754;stop-opacity:0"/>
			</radialGradient>
			<circle style="fill:url(#SVGID_00000044164073658265989990000000223726682093199783_);" cx="413.896" cy="224.388" r="190.742"/>
		</g>
		<g>
			<g style="opacity:0.25;">
				
					<linearGradient id="SVGID_00000007400289767987539940000000168931181304042428_" gradientUnits="userSpaceOnUse" x1="219.5619" y1="75.8545" x2="219.5619" y2="33.5761">
					<stop  offset="0" style="stop-color:#6585CE"/>
					<stop  offset="0.1502" style="stop-color:#6181C8;stop-opacity:0.8498"/>
					<stop  offset="0.3468" style="stop-color:#5774B8;stop-opacity:0.6532"/>
					<stop  offset="0.5692" style="stop-color:#475F9D;stop-opacity:0.4308"/>
					<stop  offset="0.8087" style="stop-color:#304277;stop-opacity:0.1913"/>
					<stop  offset="1" style="stop-color:#1A2754;stop-opacity:0"/>
				</linearGradient>
				<path style="fill:url(#SVGID_00000007400289767987539940000000168931181304042428_);" d="M277.974,56.436
					c-3.213,0-6.24,0.785-8.909,2.166c-6.602-14.746-21.394-25.025-38.596-25.025c-14.998,0-28.162,7.816-35.667,19.591
					c-3.204-1.492-6.775-2.33-10.542-2.33c-10.173,0-18.921,6.075-22.831,14.792c-2.035-1.434-4.511-2.283-7.19-2.283
					c-6.908,0-12.509,5.6-12.509,12.508h17.512h7.505h21.443h21.086h49.278h14.192h24.645
					C297.393,65.13,288.699,56.436,277.974,56.436z"/>
				
					<linearGradient id="SVGID_00000069383095570974469340000002192683586396165274_" gradientUnits="userSpaceOnUse" x1="527.8011" y1="172.9469" x2="527.8011" y2="124.3585">
					<stop  offset="0" style="stop-color:#6585CE"/>
					<stop  offset="0.1502" style="stop-color:#6181C8;stop-opacity:0.8498"/>
					<stop  offset="0.3468" style="stop-color:#5774B8;stop-opacity:0.6532"/>
					<stop  offset="0.5692" style="stop-color:#475F9D;stop-opacity:0.4308"/>
					<stop  offset="0.8087" style="stop-color:#304277;stop-opacity:0.1913"/>
					<stop  offset="1" style="stop-color:#1A2754;stop-opacity:0"/>
				</linearGradient>
				<path style="fill:url(#SVGID_00000069383095570974469340000002192683586396165274_);" d="M460.671,150.63
					c3.692,0,7.171,0.902,10.239,2.489c7.588-16.947,24.587-28.76,44.356-28.76c17.236,0,32.365,8.983,40.991,22.515
					c3.683-1.714,7.785-2.677,12.115-2.677c11.691,0,21.744,6.982,26.238,16.999c2.339-1.648,5.185-2.624,8.263-2.624
					c7.939,0,14.375,6.436,14.375,14.376h-20.126h-8.625h-24.644h-24.233h-56.633h-16.311h-28.324
					C438.354,160.621,448.345,150.63,460.671,150.63z"/>
				
					<linearGradient id="SVGID_00000142165501720439069470000014448697052373577875_" gradientUnits="userSpaceOnUse" x1="60.4121" y1="127.8759" x2="60.4121" y2="106.147">
					<stop  offset="0" style="stop-color:#6585CE"/>
					<stop  offset="0.1502" style="stop-color:#6181C8;stop-opacity:0.8498"/>
					<stop  offset="0.3468" style="stop-color:#5774B8;stop-opacity:0.6532"/>
					<stop  offset="0.5692" style="stop-color:#475F9D;stop-opacity:0.4308"/>
					<stop  offset="0.8087" style="stop-color:#304277;stop-opacity:0.1913"/>
					<stop  offset="1" style="stop-color:#1A2754;stop-opacity:0"/>
				</linearGradient>
				<path style="fill:url(#SVGID_00000142165501720439069470000014448697052373577875_);" d="M84.256,113.34
					c-3.143,0-6.05,1.001-8.428,2.696c-3.876-5.951-10.584-9.889-18.216-9.889c-9.055,0-16.814,5.54-20.078,13.415
					c-1.581-1.052-3.479-1.667-5.521-1.667c-5.512,0-9.98,4.468-9.98,9.98h13.851h6.11H69.72h9.621h19.451
					C98.792,119.848,92.284,113.34,84.256,113.34z"/>
				
					<linearGradient id="SVGID_00000049179574971443908730000005330279979702130583_" gradientUnits="userSpaceOnUse" x1="641.0487" y1="68.847" x2="641.0487" y2="42.5836">
					<stop  offset="0" style="stop-color:#6585CE"/>
					<stop  offset="0.1502" style="stop-color:#6181C8;stop-opacity:0.8498"/>
					<stop  offset="0.3468" style="stop-color:#5774B8;stop-opacity:0.6532"/>
					<stop  offset="0.5692" style="stop-color:#475F9D;stop-opacity:0.4308"/>
					<stop  offset="0.8087" style="stop-color:#304277;stop-opacity:0.1913"/>
					<stop  offset="1" style="stop-color:#1A2754;stop-opacity:0"/>
				</linearGradient>
				<path style="fill:url(#SVGID_00000049179574971443908730000005330279979702130583_);" d="M612.229,51.278
					c3.799,0,7.313,1.21,10.187,3.259c4.685-7.194,12.793-11.953,22.018-11.953c10.945,0,20.323,6.697,24.268,16.215
					c1.911-1.272,4.205-2.014,6.673-2.014c6.662,0,12.063,5.401,12.063,12.063h-16.741h-7.385h-33.513H618.17h-23.51
					C594.66,59.144,602.526,51.278,612.229,51.278z"/>
			</g>
			<g style="opacity:0.7;">
				<path style="fill:#6585CE;" d="M30.786,29.572c-1.93,0-1.934,3,0,3C32.716,32.571,32.719,29.572,30.786,29.572z"/>
				<path style="fill:#6585CE;" d="M115.515,130.111c-1.93,0-1.933,3,0,3C117.446,133.111,117.449,130.111,115.515,130.111z"/>
				<path style="fill:#6585CE;" d="M201.783,50.479c-1.93,0-1.934,3,0,3C203.713,53.479,203.716,50.479,201.783,50.479z"/>
				<path style="fill:#6585CE;" d="M277.1,103.235c-1.93,0-1.933,3,0,3C279.031,106.235,279.034,103.235,277.1,103.235z"/>
				<path style="fill:#6585CE;" d="M456.27,28.581c-1.93,0-1.933,3,0,3C458.201,31.581,458.204,28.581,456.27,28.581z"/>
				<path style="fill:#6585CE;" d="M542.899,107.048c-1.93,0-1.934,3,0,3C544.829,110.048,544.832,107.048,542.899,107.048z"/>
				<path style="fill:#6585CE;" d="M654.353,19.622c-1.93,0-1.934,3,0,3C656.283,22.622,656.287,19.622,654.353,19.622z"/>
				<path style="fill:#6585CE;" d="M714.076,162.958c-1.93,0-1.933,3,0,3C716.007,165.958,716.01,162.958,714.076,162.958z"/>
				<path style="fill:#6585CE;" d="M652.904,132.765c-1.287,0-1.289,2,0,2C654.191,134.765,654.193,132.765,652.904,132.765z"/>
				<path style="fill:#6585CE;" d="M543.865,31.072c-1.287,0-1.289,2,0,2C545.152,33.071,545.154,31.072,543.865,31.072z"/>
				<path style="fill:#6585CE;" d="M392.566,71.882c-1.287,0-1.289,2,0,2C393.852,73.882,393.855,71.882,392.566,71.882z"/>
				<path style="fill:#6585CE;" d="M278.549,29.081c-1.287,0-1.289,2,0,2C279.836,31.081,279.838,29.081,278.549,29.081z"/>
				<path style="fill:#6585CE;" d="M189.174,102.903c-1.287,0-1.289,2,0,2C190.461,104.903,190.463,102.903,189.174,102.903z"/>
				<path style="fill:#6585CE;" d="M141.73,32.071c-1.287,0-1.289,2,0,2C143.017,34.071,143.02,32.071,141.73,32.071z"/>
				<path style="fill:#6585CE;" d="M18.299,144.546c-1.287,0-1.289,2,0,2C19.586,146.546,19.588,144.546,18.299,144.546z"/>
				<path style="fill:#6585CE;" d="M84.187,58.779c-1.287,0-1.289,2,0,2C85.474,60.779,85.476,58.779,84.187,58.779z"/>
				<path style="fill:#6585CE;" d="M377.635,20.454c-1.287,0-1.289,2,0,2C378.922,22.454,378.924,20.454,377.635,20.454z"/>
				<path style="fill:#6585CE;" d="M555.478,194.979c-1.287,0-1.289,2,0,2C556.765,196.979,556.767,194.979,555.478,194.979z"/>
				<path style="fill:#6585CE;" d="M428.731,115.848c-0.643,0-0.645,1,0,1C429.375,116.848,429.376,115.848,428.731,115.848z"/>
				<path style="fill:#6585CE;" d="M489.782,53.47c-0.644,0-0.645,1,0,1C490.425,54.47,490.426,53.47,489.782,53.47z"/>
				<path style="fill:#6585CE;" d="M599.938,105.23c-0.643,0-0.645,1,0,1C600.582,106.23,600.583,105.23,599.938,105.23z"/>
				<path style="fill:#6585CE;" d="M716.067,33.562c-0.643,0-0.644,1,0,1C716.711,34.562,716.712,33.562,716.067,33.562z"/>
				<path style="fill:#6585CE;" d="M684.878,103.903c-0.643,0-0.644,1,0,1C685.522,104.903,685.523,103.903,684.878,103.903z"/>
				<path style="fill:#6585CE;" d="M728.012,78.85c-0.644,0-0.645,1,0,1C728.655,79.85,728.656,78.85,728.012,78.85z"/>
				<path style="fill:#6585CE;" d="M734.648,200.124c-0.643,0-0.645,1,0,1C735.291,201.124,735.292,200.124,734.648,200.124z"/>
				<path style="fill:#6585CE;" d="M329.193,79.35c-0.643,0-0.645,1,0,1C329.836,80.35,329.837,79.35,329.193,79.35z"/>
				<path style="fill:#6585CE;" d="M221.69,14.318c-0.644,0-0.645,1,0,1C222.334,15.318,222.335,14.318,221.69,14.318z"/>
				<path style="fill:#6585CE;" d="M163.597,34.558c-0.644,0-0.645,1,0,1C164.24,35.558,164.241,34.558,163.597,34.558z"/>
				<path style="fill:#6585CE;" d="M52.474,11.664c-0.643,0-0.644,1,0,1C53.118,12.664,53.119,11.664,52.474,11.664z"/>
				<path style="fill:#6585CE;" d="M102.244,169.599c-0.644,0-0.645,1,0,1C102.887,170.599,102.888,169.599,102.244,169.599z"/>
				<path style="fill:#6585CE;" d="M290.04,133.765c-0.643,0-0.645,1,0,1C290.684,134.765,290.685,133.765,290.04,133.765z"/>
				<path style="fill:#6585CE;" d="M33.23,89.968c-0.643,0-0.645,1,0,1C33.873,90.968,33.875,89.968,33.23,89.968z"/>
			</g>
		</g>
	</g>
</g>
<g id="OBJECTS">
	<g>
		<g>
			
				<linearGradient id="SVGID_00000103946213412064215880000003397421765792993215_" gradientUnits="userSpaceOnUse" x1="375" y1="551.3221" x2="375" y2="338.396">
				<stop  offset="0" style="stop-color:#6585CE"/>
				<stop  offset="1" style="stop-color:#12173F"/>
			</linearGradient>
			
				<rect x="0" y="341.638" style="fill:url(#SVGID_00000103946213412064215880000003397421765792993215_);" width="750" height="158.362"/>
			<g>
				
					<linearGradient id="SVGID_00000088120190031664540260000010230306199302170020_" gradientUnits="userSpaceOnUse" x1="148.3771" y1="373.6989" x2="148.3771" y2="359.7415">
					<stop  offset="0" style="stop-color:#6585CE"/>
					<stop  offset="1" style="stop-color:#12173F"/>
				</linearGradient>
				
					<ellipse style="opacity:0.24;fill:url(#SVGID_00000088120190031664540260000010230306199302170020_);" cx="148.377" cy="368.949" rx="31.413" ry="4.749"/>
				
					<linearGradient id="SVGID_00000095336703367060756630000008276485314682876863_" gradientUnits="userSpaceOnUse" x1="406.4127" y1="372.2852" x2="406.4127" y2="358.3278">
					<stop  offset="0" style="stop-color:#6585CE"/>
					<stop  offset="1" style="stop-color:#12173F"/>
				</linearGradient>
				
					<ellipse style="opacity:0.24;fill:url(#SVGID_00000095336703367060756630000008276485314682876863_);" cx="406.413" cy="367.536" rx="31.413" ry="4.749"/>
				
					<linearGradient id="SVGID_00000040571129495268227160000001125838896268675256_" gradientUnits="userSpaceOnUse" x1="587.8564" y1="370.8883" x2="587.8564" y2="356.9308">
					<stop  offset="0" style="stop-color:#6585CE"/>
					<stop  offset="1" style="stop-color:#12173F"/>
				</linearGradient>
				
					<ellipse style="opacity:0.24;fill:url(#SVGID_00000040571129495268227160000001125838896268675256_);" cx="587.856" cy="366.139" rx="31.413" ry="4.749"/>
				
					<linearGradient id="SVGID_00000126293015218919475640000000307006306625808270_" gradientUnits="userSpaceOnUse" x1="50.5157" y1="388.4923" x2="50.5157" y2="378.8642">
					<stop  offset="0" style="stop-color:#6585CE"/>
					<stop  offset="1" style="stop-color:#12173F"/>
				</linearGradient>
				
					<ellipse style="opacity:0.24;fill:url(#SVGID_00000126293015218919475640000000307006306625808270_);" cx="50.516" cy="385.216" rx="21.669" ry="3.276"/>
				
					<linearGradient id="SVGID_00000176724530005902153360000006183829756060375955_" gradientUnits="userSpaceOnUse" x1="280.3793" y1="386.1269" x2="280.3793" y2="376.4988">
					<stop  offset="0" style="stop-color:#6585CE"/>
					<stop  offset="1" style="stop-color:#12173F"/>
				</linearGradient>
				
					<ellipse style="opacity:0.24;fill:url(#SVGID_00000176724530005902153360000006183829756060375955_);" cx="280.379" cy="382.851" rx="21.669" ry="3.276"/>
				
					<linearGradient id="SVGID_00000119086469162938080110000006263837844848580742_" gradientUnits="userSpaceOnUse" x1="633.5744" y1="434.2208" x2="633.5744" y2="424.5925">
					<stop  offset="0" style="stop-color:#6585CE"/>
					<stop  offset="1" style="stop-color:#12173F"/>
				</linearGradient>
				<path style="opacity:0.24;fill:url(#SVGID_00000119086469162938080110000006263837844848580742_);" d="M655.243,430.944
					c0,1.809-9.702,3.276-21.669,3.276c-11.968,0-21.669-1.467-21.669-3.276c0-1.809,9.702-3.276,21.669-3.276
					C645.542,427.668,655.243,429.135,655.243,430.944z"/>
				
					<linearGradient id="SVGID_00000121994106665222865340000004898631101121855906_" gradientUnits="userSpaceOnUse" x1="172.798" y1="410.0915" x2="172.798" y2="402.9672">
					<stop  offset="0" style="stop-color:#6585CE"/>
					<stop  offset="1" style="stop-color:#12173F"/>
				</linearGradient>
				
					<ellipse style="opacity:0.24;fill:url(#SVGID_00000121994106665222865340000004898631101121855906_);" cx="172.798" cy="407.667" rx="16.034" ry="2.424"/>
				
					<linearGradient id="SVGID_00000073000753010165918370000004433749679244184973_" gradientUnits="userSpaceOnUse" x1="500.5745" y1="394.1929" x2="500.5745" y2="387.0687">
					<stop  offset="0" style="stop-color:#6585CE"/>
					<stop  offset="1" style="stop-color:#12173F"/>
				</linearGradient>
				<path style="opacity:0.24;fill:url(#SVGID_00000073000753010165918370000004433749679244184973_);" d="M516.608,391.769
					c0,1.339-7.179,2.424-16.034,2.424c-8.855,0-16.034-1.085-16.034-2.424s7.179-2.424,16.034-2.424
					C509.43,389.344,516.608,390.43,516.608,391.769z"/>
				
					<linearGradient id="SVGID_00000121270816420859474200000006488355226720548740_" gradientUnits="userSpaceOnUse" x1="709.4683" y1="467.1674" x2="709.4683" y2="460.0431">
					<stop  offset="0" style="stop-color:#6585CE"/>
					<stop  offset="1" style="stop-color:#12173F"/>
				</linearGradient>
				
					<ellipse style="opacity:0.24;fill:url(#SVGID_00000121270816420859474200000006488355226720548740_);" cx="709.468" cy="464.743" rx="16.034" ry="2.424"/>
				
					<linearGradient id="SVGID_00000088825007725565903710000008162612750372779396_" gradientUnits="userSpaceOnUse" x1="720.9462" y1="361.3893" x2="720.9462" y2="354.265">
					<stop  offset="0" style="stop-color:#6585CE"/>
					<stop  offset="1" style="stop-color:#12173F"/>
				</linearGradient>
				
					<ellipse style="opacity:0.24;fill:url(#SVGID_00000088825007725565903710000008162612750372779396_);" cx="720.946" cy="358.965" rx="16.034" ry="2.424"/>
				
					<linearGradient id="SVGID_00000028311873107722312880000000156576528704612786_" gradientUnits="userSpaceOnUse" x1="338.5668" y1="446.9162" x2="338.5668" y2="439.7919">
					<stop  offset="0" style="stop-color:#6585CE"/>
					<stop  offset="1" style="stop-color:#12173F"/>
				</linearGradient>
				
					<ellipse style="opacity:0.24;fill:url(#SVGID_00000028311873107722312880000000156576528704612786_);" cx="338.567" cy="444.492" rx="16.034" ry="2.424"/>
				<g>
					
						<linearGradient id="SVGID_00000016068471413607588120000009639683758321504928_" gradientUnits="userSpaceOnUse" x1="394.9148" y1="424.5628" x2="394.9148" y2="414.0025">
						<stop  offset="0" style="stop-color:#6585CE"/>
						<stop  offset="1" style="stop-color:#12173F"/>
					</linearGradient>
					<path style="opacity:0.5;fill:url(#SVGID_00000016068471413607588120000009639683758321504928_);" d="M478.533,419.283
						c0,2.916-37.437,5.28-83.618,5.28c-46.181,0-83.618-2.364-83.618-5.28c0-2.916,37.437-5.28,83.618-5.28
						C441.096,414.003,478.533,416.366,478.533,419.283z"/>
					
						<linearGradient id="SVGID_00000124856638080575747670000000930786923471608250_" gradientUnits="userSpaceOnUse" x1="397.1347" y1="419.2827" x2="397.1347" y2="396.0013">
						<stop  offset="0" style="stop-color:#1A2754"/>
						<stop  offset="1" style="stop-color:#6585CE"/>
					</linearGradient>
					<path style="fill:url(#SVGID_00000124856638080575747670000000930786923471608250_);" d="M470.353,419.283
						c-3.28-5.232-7.84-9.666-13.242-12.661c-9.33-5.174-20.971-5.975-30.922-2.129c-7.674,2.966-14.734,8.6-22.959,8.394
						c-9.293-0.233-16.508-7.752-24.68-12.181c-9.552-5.176-21.293-6.141-31.562-2.595c-10.148,3.505-18.7,11.367-23.071,21.172
						H470.353z"/>
				</g>
				<g>
					
						<linearGradient id="SVGID_00000074405875228295472200000005367674203392852112_" gradientUnits="userSpaceOnUse" x1="668.8669" y1="405.2949" x2="668.8669" y2="397.6996">
						<stop  offset="0" style="stop-color:#6585CE"/>
						<stop  offset="1" style="stop-color:#12173F"/>
					</linearGradient>
					<path style="opacity:0.5;fill:url(#SVGID_00000074405875228295472200000005367674203392852112_);" d="M706.814,401.497
						c0,2.097-16.989,3.798-37.947,3.798c-20.958,0-37.947-1.7-37.947-3.798c0-2.097,16.99-3.798,37.947-3.798
						C689.824,397.7,706.814,399.4,706.814,401.497z"/>
					
						<linearGradient id="SVGID_00000026153554392870441640000005008959800973651856_" gradientUnits="userSpaceOnUse" x1="668.8669" y1="401.4972" x2="668.8669" y2="378.2424">
						<stop  offset="0" style="stop-color:#1A2754"/>
						<stop  offset="1" style="stop-color:#6585CE"/>
					</linearGradient>
					<path style="fill:url(#SVGID_00000026153554392870441640000005008959800973651856_);" d="M699.859,401.497
						c0.574-3.454,0.425-7-0.604-10.381c-1.414-4.646-4.467-8.894-8.755-11.175s-9.824-2.355-13.875,0.323
						c-4.556,3.012-6.818,8.943-11.793,11.196c-7.954,3.602-26.285-4.9-27.273,9.49c-0.013,0.183-0.011,0.364-0.016,0.546H699.859z"
						/>
				</g>
			</g>
		</g>
		<g>
			<g>
				<g>
					
						<linearGradient id="SVGID_00000116939372444533556160000006759938146629928586_" gradientUnits="userSpaceOnUse" x1="615.08" y1="292.4718" x2="615.08" y2="160.0748">
						<stop  offset="0" style="stop-color:#1A2754"/>
						<stop  offset="1" style="stop-color:#6585CE"/>
					</linearGradient>
					<polygon style="fill:url(#SVGID_00000116939372444533556160000006759938146629928586_);" points="750,240.037 647.224,156.463 
						480.16,292.313 750,292.313 					"/>
					
						<linearGradient id="SVGID_00000075865373321691909870000016671709465384191127_" gradientUnits="userSpaceOnUse" x1="632.9818" y1="224.3881" x2="746.8925" y2="224.3881">
						<stop  offset="0" style="stop-color:#12173F"/>
						<stop  offset="1" style="stop-color:#6585CE"/>
					</linearGradient>
					<polygon style="fill:url(#SVGID_00000075865373321691909870000016671709465384191127_);" points="647.224,156.463 
						633.118,190.67 664.971,203.942 639.754,219.205 678.906,259.241 658.929,292.313 750,292.313 750,240.037 					"/>
				</g>
				<g>
					
						<linearGradient id="SVGID_00000019648792383804234190000009614562197778571171_" gradientUnits="userSpaceOnUse" x1="469.1194" y1="290.2092" x2="469.1194" y2="117.675">
						<stop  offset="0" style="stop-color:#1A2754"/>
						<stop  offset="1" style="stop-color:#6585CE"/>
					</linearGradient>
					<polygon style="fill:url(#SVGID_00000019648792383804234190000009614562197778571171_);" points="320.99,285.473 
						466.175,117.675 617.249,290.209 					"/>
					
						<linearGradient id="SVGID_00000070076737287676686870000004376874658863227555_" gradientUnits="userSpaceOnUse" x1="453.6162" y1="203.9421" x2="617.2486" y2="203.9421">
						<stop  offset="0" style="stop-color:#12173F"/>
						<stop  offset="1" style="stop-color:#6585CE"/>
					</linearGradient>
					<polygon style="fill:url(#SVGID_00000070076737287676686870000004376874658863227555_);" points="466.175,117.675 
						453.616,150.855 482.814,168.772 453.616,203.942 490.777,198.204 474.851,247.408 511.017,235.795 545.856,290.209 
						617.249,290.209 					"/>
				</g>
				<g>
					
						<linearGradient id="SVGID_00000108274226163718158440000008240826493824686241_" gradientUnits="userSpaceOnUse" x1="60.4121" y1="277.6356" x2="60.4121" y2="143.8081">
						<stop  offset="0" style="stop-color:#12173F"/>
						<stop  offset="1" style="stop-color:#6585CE"/>
					</linearGradient>
					<polygon style="fill:url(#SVGID_00000108274226163718158440000008240826493824686241_);" points="0,206.896 0,278.928 
						120.824,278.928 120.824,211.264 56.456,143.007 					"/>
					
						<linearGradient id="SVGID_00000057832684592940596840000000219678304955713983_" gradientUnits="userSpaceOnUse" x1="47.5965" y1="201.1241" x2="118.343" y2="201.1241">
						<stop  offset="0" style="stop-color:#12173F"/>
						<stop  offset="1" style="stop-color:#6585CE"/>
					</linearGradient>
					<polygon style="fill:url(#SVGID_00000057832684592940596840000000219678304955713983_);" points="56.456,143.007 
						45.617,176.514 62.428,185.361 47.387,210.967 91.626,259.241 120.824,211.264 					"/>
				</g>
				<g>
					
						<linearGradient id="SVGID_00000011724435748095639600000002417540780770615456_" gradientUnits="userSpaceOnUse" x1="247.0477" y1="316.4572" x2="247.0477" y2="111.897">
						<stop  offset="0" style="stop-color:#1A2754"/>
						<stop  offset="1" style="stop-color:#6585CE"/>
					</linearGradient>
					<polygon style="fill:url(#SVGID_00000011724435748095639600000002417540780770615456_);" points="0,316.212 494.095,316.212 
						219.562,106.316 0,271.313 					"/>
					
						<linearGradient id="SVGID_00000170984675975827587020000008201609348063600513_" gradientUnits="userSpaceOnUse" x1="199.3192" y1="211.2643" x2="506.65" y2="211.2643">
						<stop  offset="0" style="stop-color:#12173F"/>
						<stop  offset="1" style="stop-color:#6585CE"/>
					</linearGradient>
					<polygon style="fill:url(#SVGID_00000170984675975827587020000008201609348063600513_);" points="219.562,106.316 
						235.626,146.373 197.137,162.136 216.382,184.034 252.216,193.988 224.677,227.168 277.432,231.149 330.52,314.762 
						494.095,316.212 					"/>
				</g>
			</g>
			<g>
				<g>
					
						<linearGradient id="SVGID_00000179628733520001546020000014746102049143345322_" gradientUnits="userSpaceOnUse" x1="293.5648" y1="341.6377" x2="293.5648" y2="261.8762">
						<stop  offset="0" style="stop-color:#1A2754"/>
						<stop  offset="0.1569" style="stop-color:#213060"/>
						<stop  offset="0.4393" style="stop-color:#35487F"/>
						<stop  offset="0.8122" style="stop-color:#546FB2"/>
						<stop  offset="1" style="stop-color:#6585CE"/>
					</linearGradient>
					<path style="fill:url(#SVGID_00000179628733520001546020000014746102049143345322_);" d="M343.502,262.279
						c-59.058-2.393-117.943,6.287-176.412,14.942C111.393,285.466,55.696,293.711,0,301.956v39.682h587.13
						C515.186,293.66,429.922,265.78,343.502,262.279z"/>
					
						<linearGradient id="SVGID_00000022522438595574876270000006186962141681266619_" gradientUnits="userSpaceOnUse" x1="535.4951" y1="341.6377" x2="535.4951" y2="256.9889">
						<stop  offset="0" style="stop-color:#1A2754"/>
						<stop  offset="1" style="stop-color:#6585CE"/>
					</linearGradient>
					<path style="fill:url(#SVGID_00000022522438595574876270000006186962141681266619_);" d="M711.34,261.761
						c-20.273,6.284-39.227,16.734-59.986,21.153c-39.603,8.429-80.021-5.92-120.208-10.862
						c-75.682-9.308-154.727,17.44-210.156,69.586H750v-84.021C737.321,255.871,723.701,257.93,711.34,261.761z"/>
				</g>
				<g>
					<g>
						
							<linearGradient id="SVGID_00000158735410345053553490000011129194312297643957_" gradientUnits="userSpaceOnUse" x1="280.3485" y1="311.2145" x2="294.3569" y2="311.2145">
							<stop  offset="0" style="stop-color:#12173F"/>
							<stop  offset="0.9983" style="stop-color:#0A2463"/>
						</linearGradient>
						<polygon style="fill:url(#SVGID_00000158735410345053553490000011129194312297643957_);" points="292.728,293.279 
							289.994,296.971 287.604,307.805 291.944,305.842 286.718,311.818 284.295,322.797 289.264,320.551 283.281,327.392 
							281.249,336.599 288.283,334.221 280.379,341.638 306.75,341.638 298.846,334.221 305.88,336.599 303.848,327.392 
							297.866,320.551 302.835,322.797 300.412,311.818 295.185,305.842 299.526,307.805 297.135,296.971 294.402,293.279 
							296.588,294.49 293.565,280.791 290.542,294.49 						"/>
						
							<linearGradient id="SVGID_00000124122324917728115770000016713622071649608093_" gradientUnits="userSpaceOnUse" x1="293.5494" y1="311.2145" x2="306.3997" y2="311.2145">
							<stop  offset="0" style="stop-color:#12173F"/>
							<stop  offset="0.9983" style="stop-color:#0A2463"/>
						</linearGradient>
						<polygon style="fill:url(#SVGID_00000124122324917728115770000016713622071649608093_);" points="306.75,341.638 
							298.846,334.221 305.88,336.599 303.848,327.392 297.866,320.551 302.835,322.797 300.412,311.818 295.185,305.842 
							299.526,307.805 297.135,296.971 294.402,293.279 296.588,294.49 293.565,280.791 293.565,341.638 						"/>
					</g>
					<g>
						
							<linearGradient id="SVGID_00000162334780048729153670000007966387949361185158_" gradientUnits="userSpaceOnUse" x1="147.0423" y1="304.6424" x2="164.0768" y2="304.6424">
							<stop  offset="0" style="stop-color:#12173F"/>
							<stop  offset="0.9983" style="stop-color:#0A2463"/>
						</linearGradient>
						<polygon style="fill:url(#SVGID_00000162334780048729153670000007966387949361185158_);" points="162.096,282.832 
							158.772,287.322 155.865,300.496 161.143,298.11 154.788,305.376 151.841,318.727 157.884,315.995 150.608,324.314 
							148.138,335.51 156.691,332.619 147.08,341.638 179.147,341.638 169.536,332.619 178.089,335.51 175.619,324.314 
							168.344,315.995 174.386,318.727 171.44,305.376 165.084,298.11 170.363,300.496 167.455,287.322 164.132,282.832 
							166.789,284.304 163.114,267.647 159.438,284.304 						"/>
						
							<linearGradient id="SVGID_00000179638771764453477290000015801846367814702493_" gradientUnits="userSpaceOnUse" x1="163.0949" y1="304.6424" x2="178.7212" y2="304.6424">
							<stop  offset="0" style="stop-color:#12173F"/>
							<stop  offset="0.9983" style="stop-color:#0A2463"/>
						</linearGradient>
						<polygon style="fill:url(#SVGID_00000179638771764453477290000015801846367814702493_);" points="179.147,341.638 
							169.536,332.619 178.089,335.51 175.619,324.314 168.344,315.995 174.386,318.727 171.44,305.376 165.084,298.11 
							170.363,300.496 167.455,287.322 164.132,282.832 166.789,284.304 163.114,267.647 163.114,341.638 						"/>
					</g>
					<g>
						
							<linearGradient id="SVGID_00000090253981693162006140000005994613958591515810_" gradientUnits="userSpaceOnUse" x1="477.0487" y1="311.2145" x2="491.0571" y2="311.2145">
							<stop  offset="0" style="stop-color:#12173F"/>
							<stop  offset="0.9983" style="stop-color:#0A2463"/>
						</linearGradient>
						<polygon style="fill:url(#SVGID_00000090253981693162006140000005994613958591515810_);" points="489.428,293.279 
							486.694,296.971 484.304,307.805 488.644,305.842 483.418,311.818 480.995,322.797 485.964,320.551 479.981,327.392 
							477.949,336.599 484.984,334.221 477.079,341.638 503.451,341.638 495.546,334.221 502.58,336.599 500.549,327.392 
							494.566,320.551 499.535,322.797 497.112,311.818 491.886,305.842 496.226,307.805 493.835,296.971 491.102,293.279 
							493.288,294.49 490.265,280.791 487.242,294.49 						"/>
						
							<linearGradient id="SVGID_00000084506230367059909690000000919443824917660843_" gradientUnits="userSpaceOnUse" x1="490.2496" y1="311.2145" x2="503.0999" y2="311.2145">
							<stop  offset="0" style="stop-color:#12173F"/>
							<stop  offset="0.9983" style="stop-color:#0A2463"/>
						</linearGradient>
						<polygon style="fill:url(#SVGID_00000084506230367059909690000000919443824917660843_);" points="503.451,341.638 
							495.546,334.221 502.58,336.599 500.549,327.392 494.566,320.551 499.535,322.797 497.112,311.818 491.886,305.842 
							496.226,307.805 493.835,296.971 491.102,293.279 493.288,294.49 490.265,280.791 490.265,341.638 						"/>
					</g>
					<g>
						
							<linearGradient id="SVGID_00000164501013637307078530000015728944349430548891_" gradientUnits="userSpaceOnUse" x1="421.1104" y1="317.4581" x2="432.2439" y2="317.4581">
							<stop  offset="0" style="stop-color:#12173F"/>
							<stop  offset="0.9983" style="stop-color:#0A2463"/>
						</linearGradient>
						<polygon style="fill:url(#SVGID_00000164501013637307078530000015728944349430548891_);" points="430.949,303.203 
							428.777,306.138 426.877,314.748 430.326,313.188 426.173,317.938 424.247,326.664 428.196,324.878 423.441,330.315 
							421.826,337.633 427.417,335.743 421.135,341.638 442.094,341.638 435.812,335.743 441.402,337.633 439.788,330.315 
							435.033,324.878 438.982,326.664 437.056,317.938 432.902,313.188 436.352,314.748 434.452,306.138 432.28,303.203 
							434.017,304.165 431.614,293.279 429.212,304.165 						"/>
						
							<linearGradient id="SVGID_00000063594938715214489790000017812850092844737955_" gradientUnits="userSpaceOnUse" x1="431.6022" y1="317.4581" x2="441.8153" y2="317.4581">
							<stop  offset="0" style="stop-color:#12173F"/>
							<stop  offset="0.9983" style="stop-color:#0A2463"/>
						</linearGradient>
						<polygon style="fill:url(#SVGID_00000063594938715214489790000017812850092844737955_);" points="442.094,341.638 
							435.812,335.743 441.402,337.633 439.788,330.315 435.033,324.878 438.982,326.664 437.056,317.938 432.902,313.188 
							436.352,314.748 434.452,306.138 432.28,303.203 434.017,304.165 431.614,293.279 431.614,341.638 						"/>
					</g>
					<g>
						
							<linearGradient id="SVGID_00000123409403248348135650000014032826608563765654_" gradientUnits="userSpaceOnUse" x1="655.7776" y1="317.4581" x2="666.9111" y2="317.4581">
							<stop  offset="0" style="stop-color:#12173F"/>
							<stop  offset="0.9983" style="stop-color:#0A2463"/>
						</linearGradient>
						<polygon style="fill:url(#SVGID_00000123409403248348135650000014032826608563765654_);" points="665.616,303.203 
							663.444,306.138 661.544,314.748 664.994,313.188 660.84,317.938 658.914,326.664 662.863,324.878 658.108,330.315 
							656.493,337.633 662.084,335.743 655.802,341.638 676.761,341.638 670.479,335.743 676.07,337.633 674.455,330.315 
							669.7,324.878 673.649,326.664 671.723,317.938 667.57,313.188 671.019,314.748 669.119,306.138 666.947,303.203 
							668.684,304.165 666.282,293.279 663.879,304.165 						"/>
						
							<linearGradient id="SVGID_00000106105880734831581590000017900493917759421093_" gradientUnits="userSpaceOnUse" x1="666.2693" y1="317.4581" x2="676.4825" y2="317.4581">
							<stop  offset="0" style="stop-color:#12173F"/>
							<stop  offset="0.9983" style="stop-color:#0A2463"/>
						</linearGradient>
						<polygon style="fill:url(#SVGID_00000106105880734831581590000017900493917759421093_);" points="676.761,341.638 
							670.479,335.743 676.07,337.633 674.455,330.315 669.7,324.878 673.649,326.664 671.723,317.938 667.57,313.188 
							671.019,314.748 669.119,306.138 666.947,303.203 668.684,304.165 666.282,293.279 666.282,341.638 						"/>
					</g>
					<g>
						
							<linearGradient id="SVGID_00000155860984250029951660000016515727152578650778_" gradientUnits="userSpaceOnUse" x1="188.8075" y1="317.4581" x2="199.941" y2="317.4581">
							<stop  offset="0" style="stop-color:#12173F"/>
							<stop  offset="0.9983" style="stop-color:#0A2463"/>
						</linearGradient>
						<polygon style="fill:url(#SVGID_00000155860984250029951660000016515727152578650778_);" points="198.646,303.203 
							196.474,306.138 194.574,314.748 198.023,313.188 193.87,317.938 191.944,326.664 195.893,324.878 191.138,330.315 
							189.523,337.633 195.114,335.743 188.832,341.638 209.791,341.638 203.509,335.743 209.1,337.633 207.485,330.315 
							202.73,324.878 206.679,326.664 204.753,317.938 200.599,313.188 204.049,314.748 202.149,306.138 199.977,303.203 
							201.714,304.165 199.311,293.279 196.909,304.165 						"/>
						
							<linearGradient id="SVGID_00000150815829803123885430000010817180137508148114_" gradientUnits="userSpaceOnUse" x1="199.2993" y1="317.4581" x2="209.5124" y2="317.4581">
							<stop  offset="0" style="stop-color:#12173F"/>
							<stop  offset="0.9983" style="stop-color:#0A2463"/>
						</linearGradient>
						<polygon style="fill:url(#SVGID_00000150815829803123885430000010817180137508148114_);" points="209.791,341.638 
							203.509,335.743 209.1,337.633 207.485,330.315 202.73,324.878 206.679,326.664 204.753,317.938 200.599,313.188 
							204.049,314.748 202.149,306.138 199.977,303.203 201.714,304.165 199.311,293.279 199.311,341.638 						"/>
					</g>
					<g>
						
							<linearGradient id="SVGID_00000053533014688468486980000015525265887352314011_" gradientUnits="userSpaceOnUse" x1="22.6671" y1="327.4131" x2="29.2169" y2="327.4131">
							<stop  offset="0" style="stop-color:#12173F"/>
							<stop  offset="0.9983" style="stop-color:#0A2463"/>
						</linearGradient>
						<polygon style="fill:url(#SVGID_00000053533014688468486980000015525265887352314011_);" points="28.455,319.027 
							27.177,320.753 26.059,325.819 28.089,324.901 25.645,327.695 24.512,332.829 26.836,331.778 24.038,334.977 23.088,339.282 
							26.377,338.17 22.681,341.638 35.012,341.638 31.316,338.17 34.605,339.282 33.655,334.977 30.858,331.778 33.181,332.829 
							32.048,327.695 29.604,324.901 31.634,325.819 30.516,320.753 29.238,319.027 30.26,319.593 28.847,313.188 27.433,319.593 
													"/>
						
							<linearGradient id="SVGID_00000127759394722757436740000011141248554978354622_" gradientUnits="userSpaceOnUse" x1="28.8394" y1="327.4131" x2="34.8477" y2="327.4131">
							<stop  offset="0" style="stop-color:#12173F"/>
							<stop  offset="0.9983" style="stop-color:#0A2463"/>
						</linearGradient>
						<polygon style="fill:url(#SVGID_00000127759394722757436740000011141248554978354622_);" points="35.012,341.638 
							31.316,338.17 34.605,339.282 33.655,334.977 30.858,331.778 33.181,332.829 32.048,327.695 29.604,324.901 31.634,325.819 
							30.516,320.753 29.238,319.027 30.26,319.593 28.847,313.188 28.847,341.638 						"/>
					</g>
					<g>
						
							<linearGradient id="SVGID_00000008830550273360707690000004020458575218591365_" gradientUnits="userSpaceOnUse" x1="688.6638" y1="327.4131" x2="695.2136" y2="327.4131">
							<stop  offset="0" style="stop-color:#12173F"/>
							<stop  offset="0.9983" style="stop-color:#0A2463"/>
						</linearGradient>
						<polygon style="fill:url(#SVGID_00000008830550273360707690000004020458575218591365_);" points="694.452,319.027 
							693.174,320.753 692.056,325.819 694.086,324.901 691.642,327.695 690.509,332.829 692.832,331.778 690.035,334.977 
							689.085,339.282 692.374,338.17 688.678,341.638 701.008,341.638 697.313,338.17 700.602,339.282 699.651,334.977 
							696.854,331.778 699.177,332.829 698.045,327.695 695.601,324.901 697.63,325.819 696.513,320.753 695.235,319.027 
							696.257,319.593 694.843,313.188 693.43,319.593 						"/>
						
							<linearGradient id="SVGID_00000023282104208409575520000003862052064719125416_" gradientUnits="userSpaceOnUse" x1="694.8361" y1="327.4131" x2="700.8444" y2="327.4131">
							<stop  offset="0" style="stop-color:#12173F"/>
							<stop  offset="0.9983" style="stop-color:#0A2463"/>
						</linearGradient>
						<polygon style="fill:url(#SVGID_00000023282104208409575520000003862052064719125416_);" points="701.008,341.638 
							697.313,338.17 700.602,339.282 699.651,334.977 696.854,331.778 699.177,332.829 698.045,327.695 695.601,324.901 
							697.63,325.819 696.513,320.753 695.235,319.027 696.257,319.593 694.843,313.188 694.843,341.638 						"/>
					</g>
				</g>
			</g>
		</g>
		<g>
			
				<linearGradient id="SVGID_00000057139293894875461120000006820776474872157829_" gradientUnits="userSpaceOnUse" x1="347.4216" y1="500" x2="347.4216" y2="402.9327">
				<stop  offset="0" style="stop-color:#1A2754"/>
				<stop  offset="0.1765" style="stop-color:#2E4074"/>
				<stop  offset="0.4241" style="stop-color:#465E9B"/>
				<stop  offset="0.6522" style="stop-color:#5773B7"/>
				<stop  offset="0.8515" style="stop-color:#6180C8"/>
				<stop  offset="1" style="stop-color:#6585CE"/>
			</linearGradient>
			<path style="fill:url(#SVGID_00000057139293894875461120000006820776474872157829_);" d="M557.253,451.301
				c-58.283-5.108-116.794,2.902-175.045,8.366c-58.25,5.465-117.913,8.28-174.429-6.848
				c-37.38-10.006-72.305-27.595-109.256-39.086C66.705,403.839,31.809,398.751,0,407.215V500h694.843
				C656.115,470.297,606.333,455.602,557.253,451.301z"/>
			<g>
				<g>
					
						<linearGradient id="SVGID_00000038383879798596738840000005242370124848515725_" gradientUnits="userSpaceOnUse" x1="20.1612" y1="345.4209" x2="91.3373" y2="345.4209">
						<stop  offset="0" style="stop-color:#12173F"/>
						<stop  offset="0.9983" style="stop-color:#0A2463"/>
					</linearGradient>
					<polygon style="fill:url(#SVGID_00000038383879798596738840000005242370124848515725_);" points="83.059,254.288 
						69.171,273.05 57.024,328.096 79.078,318.125 52.524,348.487 40.214,404.272 65.46,392.858 35.062,427.616 24.738,474.398 
						60.478,462.317 20.318,500 154.308,500 114.147,462.317 149.887,474.398 139.564,427.616 109.165,392.858 134.412,404.272 
						122.102,348.487 95.547,318.125 117.601,328.096 105.454,273.05 91.566,254.288 102.672,260.442 87.313,190.842 
						71.954,260.442 					"/>
					
						<linearGradient id="SVGID_00000034063031064085917530000013674393618345682817_" gradientUnits="userSpaceOnUse" x1="87.2346" y1="345.4209" x2="152.5268" y2="345.4209">
						<stop  offset="0" style="stop-color:#12173F"/>
						<stop  offset="0.9983" style="stop-color:#0A2463"/>
					</linearGradient>
					<polygon style="fill:url(#SVGID_00000034063031064085917530000013674393618345682817_);" points="154.308,500 114.147,462.317 
						149.887,474.398 139.564,427.616 109.165,392.858 134.412,404.272 122.102,348.487 95.547,318.125 117.601,328.096 
						105.454,273.05 91.566,254.288 102.672,260.442 87.313,190.842 87.313,500 					"/>
				</g>
				<g>
					
						<linearGradient id="SVGID_00000104684960613422786330000016307063076224969900_" gradientUnits="userSpaceOnUse" x1="191.407" y1="378.4945" x2="247.3543" y2="378.4945">
						<stop  offset="0" style="stop-color:#12173F"/>
						<stop  offset="0.9983" style="stop-color:#0A2463"/>
					</linearGradient>
					<polygon style="fill:url(#SVGID_00000104684960613422786330000016307063076224969900_);" points="240.847,306.861 
						229.931,321.608 220.383,364.876 237.718,357.039 216.845,380.905 207.169,424.754 227.014,415.782 203.12,443.103 
						195.005,479.876 223.098,470.38 191.53,500 296.852,500 265.284,470.38 293.377,479.876 285.262,443.103 261.368,415.782 
						281.213,424.754 271.536,380.905 250.663,357.039 267.999,364.876 258.451,321.608 247.534,306.861 256.264,311.698 
						244.191,256.989 232.118,311.698 					"/>
					
						<linearGradient id="SVGID_00000075132955795269006990000014686358903757501581_" gradientUnits="userSpaceOnUse" x1="244.1294" y1="378.4945" x2="295.4517" y2="378.4945">
						<stop  offset="0" style="stop-color:#12173F"/>
						<stop  offset="0.9983" style="stop-color:#0A2463"/>
					</linearGradient>
					<polygon style="fill:url(#SVGID_00000075132955795269006990000014686358903757501581_);" points="296.852,500 265.284,470.38 
						293.377,479.876 285.262,443.103 261.368,415.782 281.213,424.754 271.536,380.905 250.663,357.039 267.999,364.876 
						258.451,321.608 247.534,306.861 256.264,311.698 244.191,256.989 244.191,500 					"/>
				</g>
				<g>
					
						<linearGradient id="SVGID_00000005232058185311201980000011371004284359532672_" gradientUnits="userSpaceOnUse" x1="520.236" y1="402.9731" x2="564.9122" y2="402.9731">
						<stop  offset="0" style="stop-color:#12173F"/>
						<stop  offset="0.9983" style="stop-color:#0A2463"/>
					</linearGradient>
					<polygon style="fill:url(#SVGID_00000005232058185311201980000011371004284359532672_);" points="559.716,345.771 
						550.999,357.547 543.374,392.099 557.217,385.84 540.55,404.898 532.823,439.913 548.669,432.749 529.589,454.565 
						523.109,483.93 545.542,476.347 520.334,500 604.438,500 579.23,476.347 601.663,483.93 595.183,454.565 576.103,432.749 
						591.949,439.913 584.222,404.898 567.555,385.84 581.398,392.099 573.773,357.547 565.056,345.771 572.027,349.633 
						562.386,305.946 552.745,349.633 					"/>
					
						<linearGradient id="SVGID_00000089547798307894528760000011792426876486433427_" gradientUnits="userSpaceOnUse" x1="562.337" y1="402.9731" x2="603.3198" y2="402.9731">
						<stop  offset="0" style="stop-color:#12173F"/>
						<stop  offset="0.9983" style="stop-color:#0A2463"/>
					</linearGradient>
					<polygon style="fill:url(#SVGID_00000089547798307894528760000011792426876486433427_);" points="604.438,500 579.23,476.347 
						601.663,483.93 595.183,454.565 576.103,432.749 591.949,439.913 584.222,404.898 567.555,385.84 581.398,392.099 
						573.773,357.547 565.056,345.771 572.027,349.633 562.386,305.946 562.386,500 					"/>
				</g>
			</g>
		</g>
	</g>
</g>
</svg>
